<svg xmlns="http://www.w3.org/2000/svg" xmlns:xlink="http://www.w3.org/1999/xlink" viewBox="0 0 1300 177.78"><defs><style>.cls-1{fill:url(#linear-gradient);}.cls-2{fill:url(#linear-gradient-2);}.cls-3{fill:url(#linear-gradient-3);}.cls-4{fill:url(#linear-gradient-4);}.cls-5{fill:url(#linear-gradient-5);}.cls-6{fill:url(#linear-gradient-6);}.cls-7{fill:url(#linear-gradient-7);}.cls-8{fill:url(#linear-gradient-8);}.cls-9{fill:url(#linear-gradient-9);}.cls-10{fill:url(#linear-gradient-10);}</style><linearGradient id="linear-gradient" x1="91.89" y1="139.07" x2="1.44" y2="48.62" gradientUnits="userSpaceOnUse"><stop offset="0" stop-color="#2a79b0"/><stop offset="1" stop-color="#3498db"/></linearGradient><linearGradient id="linear-gradient-2" x1="232.25" y1="167.6" x2="116.1" y2="51.45" xlink:href="#linear-gradient"/><linearGradient id="linear-gradient-3" x1="332.38" y1="158.19" x2="248.07" y2="73.88" xlink:href="#linear-gradient"/><linearGradient id="linear-gradient-4" x1="449.11" y1="153.78" x2="346.64" y2="51.31" xlink:href="#linear-gradient"/><linearGradient id="linear-gradient-5" x1="596.04" y1="193.24" x2="456.83" y2="54.03" xlink:href="#linear-gradient"/><linearGradient id="linear-gradient-6" x1="737.61" y1="167.6" x2="621.46" y2="51.45" xlink:href="#linear-gradient"/><linearGradient id="linear-gradient-7" x1="847.43" y1="153.78" x2="744.96" y2="51.31" xlink:href="#linear-gradient"/><linearGradient id="linear-gradient-8" x1="957.23" y1="178.04" x2="814.05" y2="34.87" xlink:href="#linear-gradient"/><linearGradient id="linear-gradient-9" x1="1162.21" y1="175.4" x2="996.94" y2="10.13" xlink:href="#linear-gradient"/><linearGradient id="linear-gradient-10" x1="1296.86" y1="161.63" x2="1211.68" y2="76.44" xlink:href="#linear-gradient"/></defs><g id="Layer_2" data-name="Layer 2"><g id="LOGO_TXT"><g id="blue-white"><g id="logo"><g id="txt"><path class="cls-1" d="M85.07,113.86a89.09,89.09,0,0,1-3.58,26.08,55.17,55.17,0,0,1-10.81,20.15,48.54,48.54,0,0,1-18.16,13q-10.92,4.63-25.73,4.64a123,123,0,0,1-13.22-.71A112.73,112.73,0,0,1,0,174.72l2.12-23.15a7.47,7.47,0,0,1,2.46-4.93,8.75,8.75,0,0,1,6-1.88,23.78,23.78,0,0,1,4.93.65,33.38,33.38,0,0,0,7,.64,29.13,29.13,0,0,0,10.05-1.58,15.63,15.63,0,0,0,7.11-5.29,25.63,25.63,0,0,0,4.22-9.7,65.11,65.11,0,0,0,1.42-14.8V4.7H85.07Z"/><path class="cls-2" d="M224,54.05V175.9H201.39q-6.81,0-8.93-6.11l-2.11-7a70.52,70.52,0,0,1-7.29,6.17,45.18,45.18,0,0,1-8.05,4.7,47.63,47.63,0,0,1-9.28,3,50.06,50.06,0,0,1-10.87,1.12,42.65,42.65,0,0,1-17.68-3.47,36.46,36.46,0,0,1-13-9.69,42.49,42.49,0,0,1-8-14.69,60.82,60.82,0,0,1-2.7-18.57V54.05h36.43v77.31q0,9.06,4.11,14t12.1,4.93a25.47,25.47,0,0,0,11.22-2.52,45.27,45.27,0,0,0,10.17-6.88V54.05Z"/><path class="cls-3" d="M328.41,80.72a9.32,9.32,0,0,1-3,3.17,7.83,7.83,0,0,1-4.05.94,13,13,0,0,1-5.17-1.11l-5.58-2.41a62.38,62.38,0,0,0-6.76-2.41,30.35,30.35,0,0,0-8.58-1.12q-6.93,0-10.63,2.65a8.51,8.51,0,0,0-3.7,7.34,7.34,7.34,0,0,0,2.41,5.64,22.1,22.1,0,0,0,6.4,3.94,89.77,89.77,0,0,0,9.05,3.23q5,1.53,10.34,3.41a92.72,92.72,0,0,1,10.34,4.4,38.84,38.84,0,0,1,9,6.23,27.75,27.75,0,0,1,6.41,9,30.5,30.5,0,0,1,2.41,12.69A41.76,41.76,0,0,1,334.05,153a35.5,35.5,0,0,1-9.81,13.16,46.23,46.23,0,0,1-16.1,8.58,72.43,72.43,0,0,1-22,3.06,67.3,67.3,0,0,1-12.46-1.18,86.14,86.14,0,0,1-12-3.17,65.44,65.44,0,0,1-10.75-4.76,46.83,46.83,0,0,1-8.46-5.93l8.46-13.4a10.86,10.86,0,0,1,3.58-3.7,10.43,10.43,0,0,1,5.58-1.35,11.47,11.47,0,0,1,5.7,1.41l5.47,3.05a44.53,44.53,0,0,0,6.87,3.06,29.77,29.77,0,0,0,9.93,1.41,25.16,25.16,0,0,0,7.17-.88,12.62,12.62,0,0,0,4.69-2.41,9.42,9.42,0,0,0,3.41-7.29,7.91,7.91,0,0,0-2.47-6,21.47,21.47,0,0,0-6.46-4.05,78.33,78.33,0,0,0-9.1-3.17q-5.12-1.47-10.4-3.35a83.3,83.3,0,0,1-10.4-4.53,35.66,35.66,0,0,1-9.11-6.69,31.14,31.14,0,0,1-6.46-9.93,36.61,36.61,0,0,1-2.47-14.22,37,37,0,0,1,3-14.75,34.15,34.15,0,0,1,9-12.27,44,44,0,0,1,15-8.41,65.17,65.17,0,0,1,21.15-3.11,68.4,68.4,0,0,1,12.75,1.17,65.65,65.65,0,0,1,11.57,3.29,55.62,55.62,0,0,1,9.87,5,47.27,47.27,0,0,1,7.87,6.28Z"/><path class="cls-4" d="M401.61,177.78a43.08,43.08,0,0,1-15.34-2.53,29.59,29.59,0,0,1-18-18.39,43.32,43.32,0,0,1-2.35-14.69v-63H355.55A6.57,6.57,0,0,1,348.73,72V57.81l19.39-3.76,7.17-29.73q1.41-5.64,8-5.64h19v35.6h30.2V79.19h-30.2v60.52a11.39,11.39,0,0,0,2.06,7,7,7,0,0,0,5.93,2.76,11.83,11.83,0,0,0,3.35-.41,13.84,13.84,0,0,0,2.35-.94c.67-.35,1.3-.67,1.88-.94a4.88,4.88,0,0,1,2.06-.41,4.22,4.22,0,0,1,2.64.76,9.44,9.44,0,0,1,2.06,2.41l11,17.27a50,50,0,0,1-15.86,7.93A62.78,62.78,0,0,1,401.61,177.78Z"/><path class="cls-5" d="M587.65,110.35l-84.62.29,15.76-46.7q1.76-4.47,3.76-10.59t3.77-13.29c1.33,4.7,2.66,9.08,4,13.11s2.58,7.55,3.76,10.53l6.68,19.74a12.35,12.35,0,0,0,11.7,8.39h28L546.78,4.77h-40.7L439.74,176.16h31.05a13,13,0,0,0,8.3-2.65,14.37,14.37,0,0,0,4.64-5.94l10.12-29.88H559l10.11,29.88a15.26,15.26,0,0,0,4.83,6.17,13.42,13.42,0,0,0,8.35,2.42h30.82Z"/><path class="cls-6" d="M729.31,54.05V175.9H706.75q-6.81,0-8.93-6.11l-2.11-7a70.52,70.52,0,0,1-7.29,6.17,44.83,44.83,0,0,1-8,4.7,47.63,47.63,0,0,1-9.28,3,50.06,50.06,0,0,1-10.87,1.12,42.65,42.65,0,0,1-17.68-3.47,36.33,36.33,0,0,1-13-9.69,42.17,42.17,0,0,1-8-14.69,60.51,60.51,0,0,1-2.71-18.57V54.05h36.43v77.31q0,9.06,4.11,14t12.1,4.93a25.47,25.47,0,0,0,11.22-2.52,45.27,45.27,0,0,0,10.17-6.88V54.05Z"/><path class="cls-7" d="M799.93,177.78a43,43,0,0,1-15.33-2.53,29.57,29.57,0,0,1-18-18.39,43.32,43.32,0,0,1-2.35-14.69v-63H753.87A6.57,6.57,0,0,1,747.05,72V57.81l19.39-3.76,7.17-29.73q1.41-5.64,8-5.64h19v35.6h30.2V79.19h-30.2v60.52a11.39,11.39,0,0,0,2.06,7,7,7,0,0,0,5.93,2.76,11.83,11.83,0,0,0,3.35-.41,13.84,13.84,0,0,0,2.35-.94c.67-.35,1.29-.67,1.88-.94a4.88,4.88,0,0,1,2.06-.41,4.22,4.22,0,0,1,2.64.76,9.44,9.44,0,0,1,2.06,2.41l11,17.27a50,50,0,0,1-15.86,7.93A62.78,62.78,0,0,1,799.93,177.78Z"/><path class="cls-8" d="M885.35,64.74a59,59,0,0,1,14.27-9.1A44.54,44.54,0,0,1,918,52.17a42.69,42.69,0,0,1,17.69,3.47,36.65,36.65,0,0,1,13,9.63,41.62,41.62,0,0,1,8,14.69,61,61,0,0,1,2.7,18.5V175.9H923V98.46q0-8.92-4.12-13.92t-12.1-5a25.53,25.53,0,0,0-11.22,2.52A45.21,45.21,0,0,0,885.35,89v87H848.92V0h36.43Z"/><path class="cls-9" d="M1161.71,9.63V175.9h-10.46V34.19a64.37,64.37,0,0,1,.35-6.46l-65.45,116.21a5.11,5.11,0,0,1-4.7,3.05h-1.88a5.13,5.13,0,0,1-4.7-3.05L1007.66,27.5a65.82,65.82,0,0,1,.36,6.69V175.9H997.44V9.63h8.34a7.48,7.48,0,0,1,2.59.36,4.27,4.27,0,0,1,1.88,1.88l67.09,115.62a47.88,47.88,0,0,1,3.06,7c.47-1.25,1-2.49,1.52-3.7s1.14-2.37,1.77-3.47l65.21-115.5a4.08,4.08,0,0,1,1.94-1.88,7.92,7.92,0,0,1,2.64-.36Z"/><path class="cls-10" d="M1211.88,112.8V115a79.2,79.2,0,0,0,3,23.15,47.42,47.42,0,0,0,8.7,16.74,35.74,35.74,0,0,0,13.62,10.17,45.19,45.19,0,0,0,17.87,3.41,53.53,53.53,0,0,0,15.27-1.94,57.85,57.85,0,0,0,10.87-4.35,59.93,59.93,0,0,0,7-4.35c1.72-1.29,3-1.94,3.76-1.94a2.69,2.69,0,0,1,2.35,1.18l3.06,3.76a31.9,31.9,0,0,1-7.47,6.58,53.17,53.17,0,0,1-10.33,5.23,75.44,75.44,0,0,1-12.23,3.46,67.26,67.26,0,0,1-13.1,1.29,55.59,55.59,0,0,1-21.85-4.17,46.28,46.28,0,0,1-16.92-12.16,55.25,55.25,0,0,1-10.87-19.56,84.39,84.39,0,0,1-3.82-26.5,72.21,72.21,0,0,1,3.58-23.2,53.07,53.07,0,0,1,10.35-18.33,47.11,47.11,0,0,1,16.56-12,54.39,54.39,0,0,1,22.27-4.35,48.64,48.64,0,0,1,18.33,3.41,41.68,41.68,0,0,1,14.69,9.93,46.74,46.74,0,0,1,9.81,16,62,62,0,0,1,3.58,21.85,6.35,6.35,0,0,1-.7,3.53,2.75,2.75,0,0,1-2.35.94Zm78-7.17a50.39,50.39,0,0,0-2.65-16.86,35.83,35.83,0,0,0-7.46-12.63,32.46,32.46,0,0,0-11.46-7.93,37.7,37.7,0,0,0-14.62-2.76,44,44,0,0,0-16.22,2.82,35.57,35.57,0,0,0-12.4,8.1,40.83,40.83,0,0,0-8.4,12.69,59.47,59.47,0,0,0-4.23,16.57Z"/></g></g></g></g></g></svg>